<svg width="54" height="33" viewBox="0 0 54 33" fill="none" xmlns="http://www.w3.org/2000/svg">
<path d="M8.73204 2.11792H2V26.5145H8.73204V2.11792Z" stroke="#FF6600" stroke-width="2.0654" stroke-miterlimit="10" stroke-linecap="round" stroke-linejoin="round"/>
<path d="M8.73206 4.4751H16.0393" stroke="#FF6600" stroke-width="2.0654" stroke-miterlimit="10" stroke-linecap="round" stroke-linejoin="round"/>
<path d="M8.73206 21.5645H12.3856L18.5142 31.2288H24.525" stroke="#FF6600" stroke-width="2.0654" stroke-miterlimit="10" stroke-linecap="round" stroke-linejoin="round"/>
<path d="M20.8714 23.9216L24.525 31.2288H30.6536" stroke="#FF6600" stroke-width="2.0654" stroke-miterlimit="10" stroke-linecap="round" stroke-linejoin="round"/>
<path d="M27 22.743L30.6536 31.2288L35.4858 28.8716" stroke="#FF6600" stroke-width="2.0654" stroke-miterlimit="10" stroke-linecap="round" stroke-linejoin="round"/>
<path d="M31.8321 20.268L35.4857 28.7537L40.3178 25.1001L33.1285 11.7822L28.2963 9.30718L24.407 13.1965C22.5213 15.0822 19.457 15.0822 17.5713 13.1965L16.157 11.7822L24.6428 2H36.7821L45.2679 6.83217" stroke="#FF6600" stroke-width="2.0654" stroke-miterlimit="10" stroke-linecap="round" stroke-linejoin="round"/>
<path d="M39.1394 21.5645H45.268" stroke="#FF6600" stroke-width="2.0654" stroke-miterlimit="10" stroke-linecap="round" stroke-linejoin="round"/>
<path d="M52 2.11792H45.2679V26.5145H52V2.11792Z" stroke="#FF6600" stroke-width="2.0654" stroke-miterlimit="10" stroke-linecap="round" stroke-linejoin="round"/>
</svg>
