<svg style="display: none;" aria-hidden="true" xmlns="http://www.w3.org/2000/svg"
    xmlns:xlink="http://www.w3.org/1999/xlink">
    <symbol viewBox="0 0 7 10" id="svg-arrow">
        <path d="M1 1L5.44444 5L1 9" stroke-width="1.5" stroke-linecap="round" stroke-linejoin="round" />
    </symbol>
    <symbol viewBox="0 0 18 20" id="svg-document">
        <path fill-rule="evenodd" clip-rule="evenodd"
            d="M11.125 0.0121419C11.0813 0.00416542 11.0362 0 10.9902 0C10.9441 0 10.899 0.00416542 10.8553 0.0121419H4.59059C2.09972 0.0121419 0 2.04368 0 4.52157V15.3073C0 17.9256 2.00748 20 4.59059 20H12.5911C15.0479 20 17.0765 17.8234 17.0765 15.3073V6.07908C17.0765 5.88414 17.0015 5.69677 16.8673 5.55615L11.795 0.244307C11.6533 0.0959854 11.4577 0.0121419 11.2532 0.0121419H11.125ZM10.2391 1.52136L4.59056 1.52217C2.91669 1.52217 1.50212 2.8908 1.50212 4.5214V15.3072C1.50212 17.1005 2.84644 18.4896 4.59056 18.4896H12.591C14.1956 18.4896 15.5743 17.0104 15.5743 15.3072L15.5737 7.03052L14.697 7.03352C14.3629 7.03312 13.9829 7.03241 13.5603 7.03144C11.7882 7.02767 10.342 5.63128 10.2443 3.87352L10.2391 3.68385V1.52136ZM14.7515 5.52109L13.5636 5.52125C12.5566 5.51911 11.7412 4.69715 11.7412 3.68385V2.36874L14.7515 5.52109Z" />
        <path fill-rule="evenodd" clip-rule="evenodd"
            d="M9.94664 10.2362H4.97333V8.23621H9.94664V10.2362zM12.0781 13.078H4.97333V11.078H12.0781V13.078z" />
    </symbol>
    <symbol viewBox="0 0 12 11" id="svg-download">
        <path fill-rule="evenodd" clip-rule="evenodd" d="M7 0.211304V9.2113H5V0.211304H7Z" />
        <path fill-rule="evenodd" clip-rule="evenodd"
            d="M5.29297 9.91836L0.792969 5.41836L2.20718 4.00415L6.00008 7.79704L9.79297 4.00415L11.2072 5.41836L6.70718 9.91836C6.31666 10.3089 5.68349 10.3089 5.29297 9.91836Z" />
    </symbol>
    <symbol viewBox="0 0 9 18" id="svg-facebook">
        <path
            d="M7.21324 2.93015H8.82426V0.124265C8.54632 0.0860294 7.59044 0 6.47721 0C4.15441 0 2.56324 1.46103 2.56324 4.14632V6.61765H0V9.75441H2.56324V17.6471H5.70588V9.75515H8.16544L8.55588 6.61838H5.70515V4.45735C5.70588 3.55074 5.95 2.93015 7.21324 2.93015Z" />
    </symbol>
    <symbol viewBox="0 0 20 20" id="svg-instagram">
        <path
            d="M9.80474 0C7.14216 0 6.80801 0.0116423 5.76226 0.0592322C4.71855 0.107026 4.00613 0.272263 3.38276 0.514706C2.73795 0.765114 2.19097 1.10008 1.64604 1.64522C1.10069 2.19016 0.765727 2.73713 0.514501 3.38174C0.271446 4.00531 0.106005 4.71793 0.0590277 5.76123C0.0122548 6.80699 0 7.14134 0 9.80392C0 12.4665 0.0118466 12.7996 0.0592322 13.8454C0.107231 14.8891 0.272467 15.6015 0.514706 16.2249C0.765319 16.8697 1.10029 17.4167 1.64542 17.9616C2.19016 18.5069 2.73713 18.8427 3.38154 19.0931C4.00531 19.3356 4.71793 19.5008 5.76144 19.5486C6.80719 19.5962 7.14114 19.6078 9.80351 19.6078C12.4663 19.6078 12.7994 19.5962 13.8452 19.5486C14.8889 19.5008 15.6021 19.3356 16.2259 19.0931C16.8705 18.8427 17.4167 18.5069 17.9614 17.9616C18.5067 17.4167 18.8417 16.8697 19.0929 16.2251C19.3339 15.6015 19.4994 14.8889 19.5484 13.8456C19.5954 12.7998 19.6076 12.4665 19.6076 9.80392C19.6076 7.14134 19.5954 6.80719 19.5484 5.76144C19.4994 4.71773 19.3339 4.00531 19.0929 3.38194C18.8417 2.73713 18.5067 2.19016 17.9614 1.64522C17.4161 1.09988 16.8707 0.76491 16.2253 0.514706C15.6003 0.272263 14.8875 0.107026 13.8438 0.0592322C12.798 0.0116423 12.4651 0 9.80167 0H9.80474ZM8.92525 1.76675C9.18628 1.76634 9.47753 1.76675 9.80474 1.76675C12.4224 1.76675 12.7326 1.77614 13.7663 1.82312C14.7222 1.86683 15.241 2.02655 15.5866 2.16074C16.0441 2.33844 16.3703 2.55086 16.7132 2.89399C17.0564 3.23713 17.2688 3.56393 17.4469 4.02145C17.5811 4.36663 17.741 4.88542 17.7845 5.8413C17.8315 6.8748 17.8417 7.18525 17.8417 9.80167C17.8417 12.4181 17.8315 12.7286 17.7845 13.7621C17.7408 14.7179 17.5811 15.2367 17.4469 15.5819C17.2692 16.0394 17.0564 16.3652 16.7132 16.7081C16.3701 17.0513 16.0443 17.2637 15.5866 17.4414C15.2414 17.5762 14.7222 17.7355 13.7663 17.7792C12.7328 17.8262 12.4224 17.8364 9.80474 17.8364C7.18689 17.8364 6.87663 17.8262 5.84314 17.7792C4.88726 17.7351 4.36846 17.5754 4.02267 17.4412C3.56516 17.2635 3.23836 17.0511 2.89522 16.7079C2.55208 16.3648 2.33967 16.0388 2.16156 15.5811C2.02737 15.2359 1.86744 14.7171 1.82394 13.7612C1.77696 12.7277 1.76757 12.4173 1.76757 9.79922C1.76757 7.18117 1.77696 6.87235 1.82394 5.83885C1.86765 4.88297 2.02737 4.36417 2.16156 4.01859C2.33926 3.56107 2.55208 3.23427 2.89522 2.89114C3.23836 2.548 3.56516 2.33558 4.02267 2.15748C4.36826 2.02267 4.88726 1.86336 5.84314 1.81944C6.74755 1.77859 7.09804 1.76634 8.92525 1.7643V1.76675ZM15.038 3.39461C14.3885 3.39461 13.8615 3.92096 13.8615 4.57067C13.8615 5.22018 14.3885 5.74714 15.038 5.74714C15.6875 5.74714 16.2145 5.22018 16.2145 4.57067C16.2145 3.92116 15.6875 3.3942 15.038 3.3942V3.39461ZM9.80474 4.7692C7.02431 4.7692 4.77002 7.02349 4.77002 9.80392C4.77002 12.5844 7.02431 14.8376 9.80474 14.8376C12.5852 14.8376 14.8386 12.5844 14.8386 9.80392C14.8386 7.02349 12.585 4.7692 9.80453 4.7692H9.80474ZM9.80474 6.53595C11.6095 6.53595 13.0727 7.99898 13.0727 9.80392C13.0727 11.6087 11.6095 13.0719 9.80474 13.0719C7.9998 13.0719 6.53677 11.6087 6.53677 9.80392C6.53677 7.99898 7.9998 6.53595 9.80474 6.53595Z" />
    </symbol>
    <symbol viewBox="0 0 95 35" id="svg-logo">
        <path
            d="M13.1219 16.6984H4.34108V20.9901H10.828V25.1339H4.34108V34.556H0V12.5546H13.1219V16.6984zM18.5976 29.7956C19.4116 30.6096 20.4228 31.0289 21.6561 31.0289 22.8647 31.0289 23.876 30.6096 24.7146 29.7956 25.5285 28.9817 25.9479 27.9457 25.9479 26.6878 25.9479 25.4299 25.5285 24.3939 24.7146 23.58 23.9006 22.766 22.8894 22.3467 21.6561 22.3467 20.4475 22.3467 19.4362 22.766 18.5976 23.58 17.8083 24.4186 17.4137 25.4545 17.4137 26.6878 17.4137 27.9211 17.8083 28.957 18.5976 29.7956zM27.5511 32.6075C25.9479 34.2107 23.9993 35 21.6561 35 19.3129 35 17.3397 34.2107 15.7611 32.6075 14.1579 31.0042 13.3686 29.0557 13.3686 26.7125 13.3686 24.3939 14.1579 22.4207 15.7611 20.8421 17.3643 19.2389 19.3376 18.4249 21.6561 18.4249 23.9746 18.4249 25.9479 19.2389 27.5511 20.8421 29.1543 22.4454 29.9683 24.4186 29.9683 26.7125 29.9683 29.0063 29.1543 30.9796 27.5511 32.6075zM40.8457 18.4003C42.5722 18.4003 44.0028 18.9676 45.0881 20.1268 46.2227 21.3108 46.79 22.8894 46.79 24.9119V34.556H42.7449V25.4299C42.7449 24.3693 42.4736 23.5553 41.9063 23.0127 41.339 22.47 40.599 22.1987 39.6371 22.1987 38.5765 22.1987 37.7379 22.5194 37.1212 23.1607 36.5046 23.802 36.1839 24.7639 36.1839 26.0958V34.556H32.1388V18.8443H36.1839V20.6202C37.1459 19.1402 38.6998 18.4003 40.8457 18.4003zM57.5934 22.7414H54.0416V29.2777C54.0416 29.697 54.1156 30.0176 54.2636 30.2396 54.4116 30.4616 54.6335 30.6342 54.9295 30.7329 55.2255 30.8316 55.5955 30.9056 56.0395 30.9056 56.4834 30.9056 57.0014 30.9056 57.5687 30.8562V34.5314C56.1875 34.704 55.0035 34.704 54.0416 34.5807 53.0796 34.4327 52.2904 34.1614 51.6984 33.7421 51.1064 33.3228 50.6624 32.7308 50.3911 31.9908 50.1198 31.2509 49.9718 30.3383 49.9718 29.2777V16.2051L54.0169 14.7252V18.8443H57.5687V22.7414H57.5934zM71.3073 25.1339C71.0853 24.0733 70.6166 23.2593 69.9013 22.7414 69.186 22.2234 68.3721 21.9521 67.4101 21.9521 66.3249 21.9521 65.4123 22.2234 64.7216 22.7907 64.0063 23.3333 63.5377 24.1226 63.3157 25.1339H71.3073zM63.8337 29.4996C64.5736 30.7082 65.8809 31.3249 67.7801 31.3249 69.334 31.3249 70.4933 30.8069 71.3073 29.7463L74.5631 31.6209C73.0092 33.8654 70.74 34.9753 67.7061 34.9753 65.1163 34.9753 63.0197 34.186 61.4658 32.6321 59.8872 31.0536 59.1226 29.0803 59.1226 26.6878 59.1226 24.3446 59.8872 22.3714 61.4412 20.7928 62.9704 19.1896 64.9683 18.4003 67.4101 18.4003 69.7287 18.4003 71.6279 19.1896 73.0832 20.7928 74.5877 22.3961 75.3524 24.3693 75.3524 26.6878 75.3524 26.9591 75.3277 27.2304 75.303 27.5018 75.2784 27.7484 75.2537 27.9951 75.2044 28.2664 71.2333 28.2664 67.2868 28.2664 63.3157 28.2664 63.439 28.6857 63.587 29.0803 63.8337 29.4996z" />
        <path fill-rule="evenodd" clip-rule="evenodd" d="M59.9119 12.5546L94.2213 0V12.5546H59.9119Z" />
    </symbol>
    <symbol viewBox="0 0 34 34" id="svg-slider-arrow">
        <path
            d="M17 2C8.71573 2 2 8.71573 2 17C2 25.2843 8.71573 32 17 32C25.2843 32 32 25.2843 32 17C32 8.71573 25.2843 2 17 2Z"
            stroke-width="3" stroke-miterlimit="10" />
        <path d="M14.5 22.625L20.75 17L14.5 11.375" stroke-width="3" stroke-linecap="square" stroke-linejoin="round" />
    </symbol>
    <symbol viewBox="0 0 17 14" id="svg-twitter">
        <path
            d="M16.8929 1.62489C16.2647 1.90045 15.5953 2.08311 14.8974 2.1718C15.6154 1.74314 16.1634 1.06953 16.421 0.257617C15.7516 0.656712 15.0125 0.938612 14.2249 1.09593C13.5893 0.419155 12.6834 0 11.6952 0C9.77783 0 8.23424 1.55626 8.23424 3.4641C8.23424 3.73861 8.25747 4.00256 8.31448 4.25385C5.43529 4.11342 2.88763 2.73348 1.17617 0.631373C0.877376 1.14977 0.702112 1.74314 0.702112 2.3819C0.702112 3.5813 1.31976 4.6445 2.24042 5.26003C1.68401 5.24947 1.13816 5.08793 0.675717 4.83348C0.675717 4.84404 0.675717 4.85777 0.675717 4.87149C0.675717 6.55445 1.87617 7.95234 3.45038 8.27436C3.16848 8.35143 2.86124 8.38839 2.54238 8.38839C2.32066 8.38839 2.09683 8.37572 1.88673 8.32926C2.33545 9.70075 3.60875 10.7091 5.12278 10.7418C3.94449 11.6635 2.44842 12.2189 0.828808 12.2189C0.544796 12.2189 0.272398 12.2062 0 12.1713C1.53409 13.1606 3.35219 13.7255 5.31282 13.7255C11.6857 13.7255 15.1698 8.44646 15.1698 3.87059C15.1698 3.7175 15.1646 3.56968 15.1572 3.42293C15.8445 2.93514 16.422 2.32594 16.8929 1.62489Z" />
    </symbol>
</svg>